<svg xmlns="http://www.w3.org/2000/svg" width="1024" height="1024"><path fill="#FEFEFE" d="M0 0h1024v1024H0V0Z"/><path fill="#F69F94" d="M698.336 814.18c.924.846 1.479 1.493 1.846 2.719.865 2.891.099 6.741-1.451 9.254-.693-.303-1.337-.674-1.999-1.039-.815-1.373-1.176-2.74-1.164-4.353.022-2.72.74-4.791 2.768-6.581Zm2.424-2.99c2.372-.157 5.102-.507 7.438-.092 1.309.233 1.74.548 2.434 1.638l-.338 1.441-1.488.433q-1.389.349-2.797.615c-1.982.362-4.862.435-6.5-.899-.793-.646-.592-.333-.732-1.257.641-.869 1.127-1.25 1.983-1.879Z"/><path fill="#445E8F" d="M822.555 205.18c9.297-2.643 21.503-3.182 30.25 1.572q.325.174.639.367c-1.2.742-2.632.159-4.058.205-9.395-2.623-17.228-2.894-26.581-.103l-.25-2.041Z"/><path fill="#F69F94" d="M696.194 810.105c-.406-2.665-1.448-7.013.315-9.39.417-.562.558-.617 1.063-.986 1.45 1.049 1.856 1.928 2.193 3.684.471 2.452.115 6.445-1.352 8.556-.309.444-.499.639-.876 1.08l-.714.012c-.465-.639-.731-1.015-.977-1.779-1.077.684.277 2.355-.295 3.767-1.818.706-3.895.966-5.827.65-1.695-.277-2.998-.82-3.99-2.239l.282-.983c1.854-1.432 3.288-2.034 5.667-1.931 1.417.061 2.589-.061 3.98-.332l.531-.109Z"/><path fill="#4469A4" d="m822.555 205.18.25 2.041c-7.837 3.048-12.997 7.181-17.29 14.464-8.161-5.016-16.36-6.79-25.785-4.577-6.52 1.531-13.389 5.214-17.056 10.97q-.249.397-.476.807-.228.409-.435.83-.206.421-.391.851-.184.431-.347.871-.162.439-.301.887-.14.447-.256.901-.116.454-.209.913-.093.46-.162.923-.069.464-.114.93t-.066.935q-.021.468-.018.936.003.469.03.937.027.468.078.933.051.466.126.929.075.462.173.92.099.459.221.911c.327 1.23.843 2.391 1.375 3.544l-.754 2.988c-.82-1.192-1.437-2.307-1.969-3.659-1.972-5.012-2.279-10.264-.049-15.254 3.059-6.846 9.725-11.67 16.661-14.094 10.191-3.561 19.602-2.103 29.17 2.464 4.073-6.801 10.139-10.957 17.594-13.301Zm30.889 1.939c5.976 1.802 11.963 7.526 14.953 12.889q.31.544.591 1.103.282.558.535 1.131.252.572.476 1.157.223.585.416 1.18.193.595.356 1.2.162.604.294 1.216.131.612.231 1.229.1.618.169 1.24.068.622.105 1.247.037.624.041 1.25.005.626-.022 1.251-.027.625-.086 1.248t-.15 1.243q-.09.619-.212 1.233-.122.613-.276 1.22-.153.607-.337 1.205c-2.386 7.821-8.417 13.919-15.604 17.543-2.696 1.359-5.812 2.655-8.771 3.264-13.41 3.056-22.721.819-34.866-5.21-8.989 4.879-17.4 8.008-27.785 6.573-.248-.72.037-1.129.242-1.845 1.347.143 2.699.267 4.055.269 8.33.011 17.018-2.495 23.055-8.444l.717.466c10.686 6.838 21.052 9.287 33.496 6.457 8.937-2.782 16.992-7.062 21.582-15.646 2.916-5.454 3.778-11.861 1.726-17.758-3.179-9.139-10.786-13.764-18.989-17.706 1.426-.046 2.858.537 4.058-.205ZM284.38 183.734c8.462-1.089 17.278-1.314 24.357 4.358 2.242 1.797 4.481 4.667 5.485 7.378.09.151.182.3.27.452 7.154 12.33 6.635 37.596 23.37 42.082 6.297 1.688 13.086-.775 18.798-3.366 14.322-7.655 26.779-17.505 38.753-28.4 4.569-4.157 9.116-9.265 13.991-12.937 1.053-.794 2.138-1.408 3.489-1.193-1.79 6.484-41.584 37.017-50.082 41.849q-2.129 1.205-4.34 2.253c-1.735.839-3.545 1.545-5.347 2.227-6.098 2.306-13.042 3.259-19.123.348-11.263-5.392-13.804-19.647-16.894-30.338-.96-3.321-2.281-6.606-3.485-9.849-2.013-3.521-4.112-6.712-7.373-9.214-6.332-4.858-13.729-4.775-21.21-3.651-33.576 9.309-58.886 37.654-81.578 62.553-1.926 2.089-3.826 4.487-5.947 6.36q-11.341 12.689-23.112 24.981c-2.557 2.694-12.73 14.512-15.811 14.68l-.493-.605c1.03-2.583 12.885-13.694 15.687-16.613 6.621-8.382 14.753-16.239 22.075-24.068 2.198-2.66 4.63-5.138 6.993-7.651 21.221-24.311 49.51-53.394 81.527-61.636Z"/><path d="M553.452 184.541c2.57-.184 4.492-.069 6.853 1.081 2.927 1.426 4.643 3.697 5.579 6.792 3.729 12.327-11.924 42.639-18.155 54.492-10.981-5.17-24.013-12.389-33.855-19.438 4.205-7.394 9.184-14.318 13.314-21.724-3.663-.276-7.05-.358-10.668.498-5.623 1.331-10.672 4.273-14.827 8.259-5.883 5.645-9.887 13.274-14.111 20.166-6.831 11.146-13.267 22.508-20.045 33.68-6.032 8.305-5.649 15.869-5.584 25.602-.677.94-1.39 1.864-2.201 2.694-2.639 2.698-14.548 11.729-18.195 11.73-1.75-3.466-1.301-16.634-.532-20.711 1.094-5.803 15.743-11.244 20.066-16.439 3.615-4.344 6.323-9.643 9.161-14.52 8.287-14.246 21.493-39.876 34.3-48.878 8.197-5.761 16.175-6.198 25.735-4.592 6.781-7.543 12.997-15.837 23.165-18.692Z"/><path fill="#FEFEFE" d="M459.388 277.464c.138.842.172.545.027 1.278-.989 4.995-.91 9.931-.82 15.003-4.352 3.838-9.552 7.075-14.298 10.434-.807-5.093-.289-10.783-.198-15.944 3.914-4.806 9.982-7.777 15.289-10.771Zm363.417-70.243c9.353-2.791 17.186-2.52 26.581.103 8.203 3.942 15.81 8.567 18.989 17.706 2.052 5.897 1.19 12.304-1.726 17.758-4.59 8.584-12.645 12.864-21.582 15.646-12.444 2.83-22.81.381-33.496-6.457l-.717-.466c-6.037 5.949-14.725 8.455-23.055 8.444-1.356-.002-2.708-.126-4.055-.269-.205.716-.49 1.125-.242 1.845-.595-.023-1.157-.05-1.746-.149-8.166-1.372-15.797-5.489-20.608-12.358l.754-2.988c-.532-1.153-1.048-2.314-1.375-3.544q-.122-.452-.221-.911-.098-.458-.173-.92-.075-.463-.126-.929-.051-.465-.078-.933-.027-.468-.03-.937-.003-.468.018-.936.021-.469.066-.935.045-.466.114-.93.069-.463.162-.923.093-.459.209-.913.116-.454.256-.901.139-.448.301-.887.163-.44.347-.871.185-.43.391-.851.207-.421.435-.83.227-.41.476-.807c3.667-5.756 10.536-9.439 17.056-10.97 9.425-2.213 17.624-.439 25.785 4.577 4.293-7.283 9.453-11.416 17.29-14.464Z"/><path fill="#445E8F" d="M761.902 246.036c4.912 7.897 11.987 11.423 20.738 13.42.366.084.736.156 1.104.23-.205.716-.49 1.125-.242 1.845-.595-.023-1.157-.05-1.746-.149-8.166-1.372-15.797-5.489-20.608-12.358l.754-2.988Z"/><path d="M511.37 231.853c5.28 1.92 10.468 5.657 15.356 8.485q9.321 5.291 18.762 10.366c-4.701 10.526-10.788 20.556-16.249 30.708q-16.697 31.677-34.445 62.778c8.322 3.212 15.296 6.963 22.63 11.994 11.63-7.035 24.863-11.771 37.931-15.372 61.71-17.003 141.724-10.665 203.217 3.781 10.356 2.433 22.143 4.528 31.996 8.458 5.926 2.364 11.809 7.484 17.102 11.088q8.831 6.053 18.174 11.28c4.881-.117 9.79-.36 14.662.035 1.121 23.66.322 47.696.33 71.397l.126 139.603c12.061-13.621 32.525-34.022 48.662-42.061 3.368-1.678 8.282-3.852 12.018-2.443 5.021 1.894 3.645 9.052 5.707 13.057.785 1.522 2.045 2.493 3.685 2.938 11.145 3.023 24.768-14.937 33.045-19.644l.543.496c-.584 1.374-1.446 2.207-2.527 3.202-6.133 5.646-16.902 15.067-24.77 17.39-2.067.61-4.141.498-6.265.408-9.459-4.67-3.988-10.306-8.403-15.184-1.068-1.18-2.657-1.487-4.176-1.424-13.92.576-47.576 34.266-57.571 45.603l.128 95.968c.012 14.422.614 29.065.214 43.461-.033 1.217-.107 2.008-.873 3.014-6.83 1.186-24.758.14-32.435.11l-72.628.058-85.027.237q-39.714.33-79.428.119c-8.382 11.933-17.574 24.208-29.663 32.618-8.929 6.213-19.947 10.383-30.934 8.195-17.541-3.493-37.449-26.264-46.972-40.531l-174.614-.043-60.329.026c-11.968-.005-23.99.22-35.95-.187-.947-19.593-.183-39.605-.162-59.237l.006-108.646.071-121.5c-.024-21.757-.868-43.729-.031-65.461 4.128-.012 8.995.488 13.025-.394 10.208-2.237 27.968-18.856 39.714-23.254 9.894-3.704 21.553-5.525 31.905-7.915 57.102-13.182 117.561-20.168 175.548-8.836 20.259-34.517 37.988-70.613 58.895-104.741Z"/><path fill="#FEFEFE" d="M512.304 256.4c1.02.429 1.776.712 2.529 1.542.085.707.086 1.249-.223 1.91-3.187 6.821-7.36 13.545-10.927 20.2-10.351 19.31-21.154 38.334-31.679 57.539l-39.045 70.74c-7.665 13.988-14.807 28.226-23.039 41.906-1.296-.097-2.189-.095-3.334-.774.304-3.984 94.249-172.653 105.718-193.063Z"/><path fill="#F7E4BA" d="M351.457 657.732q14.653-.272 29.297.293 7.036.265 14.056.82 7.02.556 14.01 1.4 6.991.845 13.941 1.977 6.95 1.132 13.847 2.55 6.897 1.418 13.73 3.12 6.833 1.702 13.59 3.684 6.756 1.982 13.426 4.241 6.669 2.259 13.239 4.792c8.258 3.262 18.79 7.393 24.944 14.05.02 8.479 1.099 26.166-.665 33.705-3.854-.291-21.558-11.419-26.668-13.877-5.029-2.419-10.265-4.23-15.55-6.001-26.821-8.989-53.467-12.521-81.532-14.872-50.23-2.693-99.173 2.486-148.292 12.976-10.288 2.197-20.606 4.307-30.774 7.019 7.567-13.469 19.93-26.974 29.6-39.081 7.857-2.634 16.585-3.94 24.722-5.599 28.214-5.754 56.259-10.173 85.079-11.197Z"/><path d="M319.318 678.196c.322-.052.641-.136.967-.157 1.664-.108 1.914.223 3.108 1.255l.048.968c-1.039.758-2.293.868-3.542 1.094-16.916 3.072-33.95 4.386-50.791 8.192l-1.407.181c-1.11-.493-1.557-.897-2.292-1.861l.272-.838c5.38-3.285 44.967-7.852 53.637-8.834Zm96.75.131c14.739.868 51.491 8.595 64.001 16.088.659 1.215.159 1.834-.191 3.114-4.074-.596-8.709-2.958-12.636-4.35q-7.981-2.798-16.171-4.905c-5.854-1.515-11.753-2.946-17.72-3.94-5.036-.84-10.937-1.064-15.724-2.719-.543-.188-.705-.278-1.169-.707-.573-.53-.369-1.829-.39-2.581Z"/><path fill="#F7E4BA" d="M671.262 657.754c40.294-.765 79.688 7.13 118.964 15.149 8.914 7.917 24.947 28.465 32.004 38.458-24.605-3.461-48.97-9.202-73.523-13.128q-11.712-1.9-23.511-3.153-11.798-1.253-23.648-1.854-11.85-.602-23.715-.55-11.865.052-23.709.757c-32.149.629-75.148 10.989-105.351 22.064-10.216 3.746-20.02 8.433-30.105 12.495-.01-11.208.775-22.657-.038-33.824 12.036-8.307 25.452-13.267 39.256-17.757 36.869-11.991 74.685-17.555 113.376-18.657Z"/><path d="M710.923 676.375c14.231 2.249 28.5 3.647 42.716 6.199 4.931.885 10.229 1.525 14.951 3.203.775 1.359.328 1.959-.008 3.449q-20.482-4.481-41.268-7.222c-3.922-.5-13.612-.451-16.635-2.129-.567-1.412-.141-2.057.244-3.5Zm-92.718 1.258c.113-.02.225-.054.34-.06 1.48-.079 1.791-.182 2.879.742l-.002.931c-2.228 2.17-34.471 8.667-40.454 10.244-8.254 2.177-16.271 4.967-24.325 7.786-.959.265-1.543.235-2.521.075-.738-.944-.765-.852-.63-2.032 5.392-5.448 54.459-15.746 64.713-17.686Z"/><path fill="#F7E4BA" d="M793.031 358.627c4.889 2.204 9.65 6.267 14.186 9.259 5.76 3.799 11.749 7.232 17.518 11.023.554 13.446.199 27.104.208 40.572l-.023 76.863.168 213.352c-10.032-13.577-20.569-26.324-31.782-38.938l-.275-312.131Zm-552.159 1.324c1.316 5.691.45 17.35.476 23.518l.113 60.076.017 227.329c-7.576 5.797-25.37 30.212-31.463 39.166-.257-.023-.399-.331-.584-.511-.478-35.767-.068-71.59-.095-107.364l.058-222.727c9.64-7.233 21.005-13.482 31.478-19.487Z"/><path fill="#F15F4A" d="M827.83 378.724c3.299-.243 6.654-.2 9.964-.262.764 40.855-.035 81.851-.032 122.721l.177 226.996-311.931-.229c3.198-1.013 6.278-2.412 9.368-3.715 10.182-4.267 20.677-7.648 31.208-10.932 15.624-4.874 31.574-9.37 47.703-12.234 45.489-8.075 98.62-6.41 143.952 2.112q25.075 4.941 50.23 9.451c5.992 1.115 13.258 3.693 19.25 3.255.744-1.396.595-3.538.622-5.117.118-6.719-.225-13.488-.256-20.215l-.054-47.81-.068-184.947c-.002-26.341-.477-52.739-.133-79.074Zm-632.767 1.641 10.917-.054.069 234.258.036 64.87c-.025 12.921-.367 25.924.061 38.835 6.412-.796 12.892-2.765 19.217-4.185 13.465-3.024 26.956-6.135 40.551-8.517 71.331-12.496 159.428-16.992 226.721 14.597q7.572 3.75 14.667 8.34-75.325-.795-150.651-.013-80.589-.322-161.176.375c-.741-40.067.053-80.299.011-120.386l-.423-228.12Z"/><path fill="#FEFEFE" d="M244.76 356.831c10.839-3.251 22.031-5.622 33.075-8.081 48.98-10.91 100.333-18.755 150.503-12.745 7.392.885 15.161 1.746 22.369 3.625-8.829 15.37-16.989 31.055-25.571 46.549-5.644 10.192-12.065 20.327-17.079 30.824l-1.081 1.605a220.083 220.083 0 0 1-14.135 24.814c-2.757 4.172-5.82 8.135-8.505 12.357-5.205 8.184-9.891 16.966-14.289 25.61 11.883 7.338 24.421 13.637 36.349 20.936 7.136-10.47 12.905-21.814 19.145-32.821q14.646-25.302 28.702-50.936l.963-1.879c11.841-23.437 25.844-45.854 37.8-69.272 8.197 2.908 15.808 6.096 22.634 11.645l-.183 330.754c-8.551-5.685-17.82-9.803-27.315-13.623-45.418-18.275-97.9-24.218-146.549-21.458-25.922 1.471-51.457 5.901-76.873 11.02l-19.78 4.049-.18-312.973Z"/><path fill="#F69F94" d="M270.387 449.685c4.69-.675 16.422-.947 20.917-.026 1.095.224.9.335 1.466 1.203-6.29.425-14.538.995-20.72.01-1.205-.192-.988-.284-1.663-1.187Zm184.819-32.996c4.847.229 29.417-.734 31.804 1.138-2.63 1.841-27.745.772-32.767.741l.963-1.879Zm-2.316 32.509c5.226-.593 30.811-1.055 34.764.233l.222 1.286c-7.461.256-28.026.833-34.33-.463l-.656-1.056Zm-.609 32.976c5.857-.289 29.004-.876 33.646.353 1.064.282.925.516 1.45 1.411-5.944.258-30.314 1.177-34.578-.33l-.518-1.434ZM269.938 580.2c1.13-.223 2.263-.273 3.412-.326 4.602-.215 34.09-.874 36.605.315.486.23.797.722 1.196 1.083q-.994.12-1.993.197c-3.8.301-36.367.704-38.021-.241-.457-.261-.799-.685-1.199-1.028Zm137.038-161.592c-8.564-.005-38.955.961-44.996-.636 3.486-2.094 39.291-.987 46.077-.969l-1.081 1.605ZM270.474 548.234c4.671-.465 46.125-.975 47.986.024.469.252.828.668 1.242 1.002-1.507.31-3.079.363-4.616.404-5.087.136-40.837.775-43.543-.407-.452-.197-.712-.682-1.069-1.023Zm64.287-98.529c6.806-.859 14.194-.307 21.056-.304 6.504.002 13.481-.472 19.944.158 1.787.174 2.147.347 3.29 1.736-8.231.812-16.97.225-25.248.202-5.432-.015-11.765.59-17.097-.285-1.351-.222-1.18-.469-1.945-1.507Zm99.668 162c.879-.178 1.676-.33 2.573-.392 5.868-.403 48.202-.327 49.726.397.403.191.669.59 1.004.885-.593.18-1.101.331-1.721.394-4.152.421-49.393.302-50.43-.275-.446-.247-.768-.672-1.152-1.009ZM309.001 482.252c3.68-.038 7.963-.342 11.537.561l.289.692c-3.741 1.917-32.793.893-38.928.913-3.958.051-7.417.02-11.286-.949l-.255-.44c9.176-1.888 28.398-.784 38.643-.777Zm79.978 97.427c7.207-.693 95.949-.653 98.441.357l.02 1.081c-25.959-.366-51.963.276-77.931.11-4.341-.028-15.657.721-19.178-.24-.956-.261-.861-.509-1.352-1.308Z"/><path d="M329.827 580.36c.972 7.38-14.152 25.446-17.575 33.441-2.945 6.877-4.297 14.493-5.747 21.803 5.217-4.867 11.19-10.604 15.197-16.51 4.553-6.711 13.9-24.548 18.839-29.118.916-.848 1.055-.867 2.227-.781.27 2.479-1.813 5.113-3.115 7.099-5.364 8.331-9.859 17.619-15.786 25.531-3.247 4.334-7.36 8.212-11.191 12.034-2.086 2.082-5.136 5.536-8.079 6.136-.831.169-.898-.124-1.514-.576-.221-.73-.364-1.408-.336-2.177.152-4.132 4.46-19.748 6.23-23.859 2.391-5.553 17.135-29.811 20.85-33.023Zm37.284-93.089c4.435 3.043 9.523 5.479 14.247 8.047 7.232 3.932 14.433 7.928 21.838 11.528-6.559 12.93-14.659 25.21-22.091 37.662-9.14 15.315-17.8 30.808-26.632 46.294-3.075-.085-20.317-10.265-24.885-12.433-3.698-1.756-7.454-3.205-11.305-4.583 16.862-28.428 32.779-57.612 48.828-86.515Z"/><path fill="#FEFEFE" d="M621.339 334.286c37.124-2.198 78.409 1.681 114.975 8.855 17.915 3.514 35.524 8.111 53.187 12.687l.217 313.484c-12.345-2.034-24.517-5.164-36.828-7.421-28.195-5.17-57.39-8.317-86.079-7.492-41.821.183-112.321 13.144-148.029 35.552-.521-57.536.217-115.148.174-172.694l.002-80.535q-.28-38.675.125-77.347c25.721-17.681 71.502-23.688 102.256-25.089Z"/><path fill="#F69F94" d="M544.904 417.247c6.785-1.064 25.554-.827 32.544-.426 1.64.094 2.265.057 3.368 1.308-.882.192-1.674.355-2.576.42-3.364.242-30.914.426-32.191-.287-.445-.249-.763-.677-1.145-1.015Zm15.33 31.503c3.747.024 16.354-.789 19.043.402l.098.985c-2.774 1.437-9.786.522-13.125.454-3.004-.003-20.246.445-21.414-.663 3.268-2.328 11.37-1.218 15.398-1.178Zm-14.305 33.457c5.028-.131 30.333-.886 33.401.708l.071 1.388c-6.336-.167-29.237.857-33.154-.652l-.318-1.444Zm-.756 97.498c6.045-.634 12.392-.272 18.466-.258 4.916.011 10.069-.29 14.959.133 1.517.131 1.62.08 2.595 1.242-5.616 1.229-26.672 1.017-32.968.504-1.666-.136-1.982-.342-3.052-1.621Zm174.236-130.508c6.112-.895 34.186-1.164 39.579.046l.615 1.067c-6.298.717-33.687.906-39.531-.11l-.663-1.003Zm-1.061-31.963c6.323-.878 13.515-.259 19.948-.265 6.174-.005 12.839-.505 18.962.11 1.499.15 1.544.209 2.451 1.324-1.201.275-2.335.376-3.567.414-4.134.13-34.907.539-36.593-.449-.475-.279-.801-.756-1.201-1.134Zm.73 64.94c6.001-.391 35.548-1.037 39.635.389l.665 1.399c-5.964.31-36.003 1.067-39.901-.541l-.399-1.247Zm-104.531 97.562c4.323-.766 72.015-.57 73.619.105.523.221.946.63 1.419.945-3.395.871-72.103.867-74.626-.371l.088-.187-.5-.492Zm-65.207-32.497 44.141-.211c8.095-.016 16.501-.477 24.559.236l.26.456c-1.439.92-2.007.849-3.675.941-8.87-.018-64.728 1.218-68.33-.708l.419-.537 2.626-.177Zm-4.319 64.46c6.508-1.421 30.536-.416 39.182-.41 10.153.006 20.996-.789 31.05.135 1.592.146 1.658.184 2.647 1.35-.395.061-.789.131-1.186.168-5.56.52-68.749.649-70.401-.198-.493-.253-.861-.697-1.292-1.045Zm160.299-64.452c8.035-.031 49.757-1.062 54.305.727-3.525 2.223-35.013 1.004-41.5.983-7.012.004-52.975.919-55.72-.812l1.028.549-.955-.584-.433.123.207.323-.411-.206c5.811-2.148 35.111-1.084 43.479-1.103Z"/><path fill="#F15F4A" d="m640.384 381.009 19.284.154q-.161 16.575-.018 33.149l32.261-.199.062 19.849-32.231-.031-.156 65.639-18.94-.067q-.02-32.798-.502-65.592c-11.354-.124-22.726.024-34.082.042l-.059-19.907 34.504.115-.123-33.152Z"/></svg>